# Blender v2.92.0 OBJ File: ''
# www.blender.org
mtllib LeftUpLeg.mtl
o LeftUpLeg_AnyConv.com__YL2P5KQGE76L5YJ867ROUMOYO_Looking_Around(1).021
v 0.109932 -0.034333 0.000340
v 0.108372 0.031343 0.027494
v 0.075022 -0.032084 0.110019
v 0.078125 0.033208 0.107860
v -0.047056 -0.025079 0.110019
v -0.045731 0.040803 0.107861
v -0.107428 -0.021503 0.000340
v -0.104743 0.169844 -0.003225
v -0.056474 -0.024555 -0.126468
v -0.054764 0.137709 -0.129623
v 0.063328 -0.031597 -0.126468
v 0.056894 0.083635 -0.126662
v 0.051816 -0.206308 -0.095249
v -0.038233 -0.200011 -0.095249
v -0.014005 -0.364506 -0.045946
v -0.048877 -0.343395 0.026642
v -0.045411 0.153418 0.106514
v -0.045131 0.097665 0.092721
v 0.089759 -0.208961 0.006688
v 0.057538 -0.206708 0.100071
v -0.031671 -0.200470 0.100071
v -0.014997 -0.319592 0.093299
v 0.060214 -0.369696 -0.045944
v -0.082740 -0.196899 0.006688
v 0.028211 0.081059 0.104562
v 0.092481 -0.351345 0.026642
v 0.064972 -0.325184 0.093299
v 0.000422 0.101075 0.136315
v -0.054131 0.053159 0.115670
v -0.055889 0.101075 0.116763
v -0.090113 0.101075 0.045439
v -0.047169 0.183794 0.116763
v 0.027098 0.100593 -0.158923
v -0.054349 0.117114 -0.134808
v -0.058168 0.177438 -0.131683
v -0.114782 0.120124 -0.011790
v -0.116304 0.059994 -0.052065
v -0.078728 0.115411 -0.100314
v -0.107227 0.183794 -0.003169
v -0.023205 0.048963 -0.160213
v -0.024452 -0.389781 -0.022866
v -0.052586 -0.376260 0.039056
v -0.039679 -0.370799 0.066800
v -0.017730 -0.362559 0.108933
v 0.061351 -0.364666 0.107693
v 0.031149 -0.363861 0.108166
v 0.090570 -0.379971 0.037303
v 0.067905 -0.390964 -0.018168
v 0.077723 -0.372989 0.069469
v -0.015949 -0.393667 -0.040618
v 0.057899 -0.395504 -0.041148
v 0.034238 -0.394910 -0.040952
v -0.049482 0.184767 -0.124940
v -0.066693 0.199474 -0.083645
v -0.049066 0.181659 -0.133833
v -0.049352 0.181601 -0.134016
v -0.057182 0.182637 -0.131456
v -0.082423 0.210699 -0.052265
v -0.099257 0.224163 -0.014519
v -0.092483 0.223430 -0.016266
v 0.098995 0.067318 -0.035141
v 0.099713 0.066247 -0.029286
v 0.110644 0.050902 0.033752
v 0.025452 0.158120 -0.120362
v 0.018632 0.156632 0.141723
v -0.003876 0.183794 0.132760
v 0.039606 0.142710 -0.160256
v 0.023696 0.161482 -0.154953
v 0.097987 0.068623 -0.037955
v 0.024957 0.149428 0.132568
v -0.037657 0.225131 0.103740
v 0.031427 0.152356 -0.157411
v -0.040169 0.227967 0.108059
v 0.068283 0.105824 -0.086732
v -0.048277 0.238424 0.086500
v 0.095762 0.071442 -0.042514
v 0.026394 0.147710 0.132692
v 0.100408 0.061871 0.067399
v 0.086710 0.076826 0.104853
v 0.083168 0.081059 0.104562
v 0.048541 0.130643 -0.121711
v 0.028536 0.145176 0.132159
v -0.046373 0.236187 0.085617
v -0.056713 0.249444 0.060260
v -0.055077 0.247676 0.055275
v 0.012620 0.174541 -0.151010
v 0.012794 0.174354 -0.151538
v 0.002461 0.185516 -0.120054
vt 0.002791 0.665227
vt 0.002791 0.740885
vt 0.059903 0.684576
vt 0.049398 0.754249
vt 0.141132 0.703080
vt 0.134409 0.776928
vt 0.231233 0.775115
vt 0.231233 0.913596
vt 0.331973 0.795780
vt 0.331973 0.903692
vt 0.425006 0.783901
vt 0.425006 0.875082
vt 0.478833 0.852874
vt 0.489180 0.754823
vt 0.477502 0.854628
vt 0.425006 0.630160
vt 0.331973 0.630238
vt 0.331973 0.511212
vt 0.231233 0.490733
vt 0.307644 0.476167
vt 0.331973 0.482314
vt 0.063009 0.921227
vt 0.127929 0.928779
vt 0.135807 0.891004
vt 0.061922 0.919965
vt 0.002791 0.556570
vt 0.067552 0.569861
vt 0.146353 0.590802
vt 0.148907 0.487011
vt 0.489180 0.598838
vt 0.425006 0.510387
vt 0.395467 0.482956
vt 0.425006 0.483781
vt 0.231233 0.629836
vt 0.035370 0.854009
vt 0.034247 0.844505
vt 0.020400 0.807408
vt 0.002791 0.781203
vt 0.482335 0.850514
vt 0.474807 0.857300
vt 0.442176 0.900016
vt 0.414230 0.915793
vt 0.393544 0.936338
vt 0.367176 0.949578
vt 0.161742 0.971555
vt 0.137024 0.960431
vt 0.121071 0.959320
vt 0.060179 0.917429
vt 0.519736 0.820958
vt 0.513496 0.806051
vt 0.067953 0.863378
vt 0.324035 0.936912
vt 0.286182 0.946402
vt 0.489180 0.456688
vt 0.445123 0.465697
vt 0.069845 0.471777
vt 0.002791 0.451598
vt 0.231233 0.456829
vt 0.149343 0.452964
vt 0.198795 0.451321
vt 0.002791 0.427795
vt 0.033304 0.432884
vt 0.070684 0.441647
vt 0.100454 0.446386
vt 0.489180 0.433650
vt 0.231233 0.957012
vt 0.889483 0.331376
vt 0.890405 0.344378
vt 0.288984 0.841454
vt 0.165089 0.633235
vt 0.312859 0.781232
vt 0.315773 0.773585
vt 0.854973 0.301521
vt 0.741126 0.259939
vt 0.791299 0.317326
vt 0.847521 0.300535
vt 0.733088 0.111013
vt 0.739116 0.140481
vt 0.773158 0.131220
vt 0.850545 0.297660
vt 0.779067 0.229133
vt 0.823005 0.240867
vt 0.449505 0.581417
vt 0.496988 0.492443
vt 0.443984 0.499819
vt 0.435638 0.440526
vt 0.352865 0.505774
vt 0.482872 0.714823
vt 0.427622 0.655760
vt 0.402292 0.759642
vt 0.360475 0.641953
vt 0.321450 0.775102
vt 0.427007 0.882498
vt 0.377355 0.809370
vt 0.348793 0.901732
vt 0.296427 0.857411
vt 0.293858 0.541002
vt 0.281834 0.564698
vt 0.313724 0.644497
vt 0.313074 0.685571
vt 0.304152 0.516357
vt 0.301363 0.869075
vt 0.305461 0.884049
vt 0.366656 0.437320
vt 0.341313 0.465195
vn 0.9931 -0.0691 -0.0945
vn 0.9866 -0.0703 0.1473
vn 0.6582 -0.0747 0.7491
vn 0.4770 -0.0334 0.8783
vn -0.5089 -0.0324 0.8602
vn -0.4957 0.1117 0.8613
vn -0.9962 -0.0643 0.0589
vn -0.9806 0.0835 0.1772
vn -0.6673 -0.0832 -0.7401
vn -0.4396 0.0775 -0.8948
vn 0.4793 -0.0799 -0.8740
vn 0.6606 0.1393 -0.7377
vn 0.9251 0.3296 -0.1884
vn 0.9389 0.3138 -0.1416
vn 0.5578 -0.2146 -0.8017
vn -0.6179 -0.2436 -0.7476
vn -0.3611 -0.2319 -0.9032
vn -0.9945 -0.0974 -0.0390
vn -0.6129 -0.7825 -0.1098
vn -0.3179 -0.8020 -0.5057
vn 0.3509 0.4169 0.8385
vn -0.6460 -0.0354 0.7625
vn -0.5188 -0.0669 0.8523
vn 0.4365 0.3685 0.8208
vn 0.9983 -0.0485 0.0330
vn 0.4557 -0.0592 0.8881
vn -0.5055 -0.1081 0.8560
vn -0.4453 0.1487 0.8829
vn 0.6569 -0.1724 -0.7340
vn 0.1114 -0.8452 -0.5227
vn 0.5009 -0.6891 -0.5237
vn -0.9758 -0.1648 0.1436
vn 0.5405 0.4483 0.7120
vn 0.6140 0.2612 0.7448
vn 0.9288 0.2529 0.2709
vn 0.9803 0.1556 0.1217
vn 0.9314 0.3637 -0.0165
vn 0.9088 0.3937 -0.1378
vn 0.9044 0.4046 -0.1355
vn 0.7276 0.3999 -0.5574
vn 0.6550 0.4702 -0.5915
vn 0.5546 0.6026 -0.5739
vn -0.0827 0.9533 0.2905
vn -0.1094 0.8099 0.5763
vn -0.0336 0.7150 0.6983
vn 0.4683 0.2281 0.8536
vn -0.0675 -0.0792 0.9946
vn -0.4859 0.4214 -0.7657
vn -0.6031 0.6982 -0.3857
vn 0.9951 -0.0514 -0.0845
vn 0.6636 -0.7405 -0.1065
vn 0.7408 0.1022 0.6639
vn -0.8339 -0.5471 0.0728
vn -0.4136 -0.3358 0.8462
vn -0.7580 -0.5208 0.3927
vn 0.7821 -0.5953 0.1844
vn 0.5403 -0.7385 0.4034
vn 0.3840 -0.3642 0.8485
vn -0.0505 -0.4797 0.8760
vn -0.6216 0.7648 -0.1695
vn 0.2948 0.8339 0.4667
vn 0.3285 -0.8572 -0.3967
vn 0.4276 0.7443 -0.5130
vn -0.3994 0.6822 -0.6124
vn -0.9411 0.1633 0.2960
vn 0.0199 0.9237 0.3827
vn 0.9102 -0.1817 0.3723
vn 0.9050 -0.1937 0.3789
vn 0.6605 -0.1219 0.7409
vn 0.2190 -0.1562 -0.9631
vn 0.6613 -0.1237 -0.7398
vn 0.3046 -0.5810 -0.7548
vn 0.6604 -0.1219 0.7409
vn 0.9830 -0.1816 -0.0258
vn 0.7206 -0.6096 0.3302
vn 0.6220 -0.2204 0.7513
vn -0.8983 0.0433 0.4373
vn -0.6654 -0.0414 0.7454
vn -0.6656 0.0143 0.7462
vn -0.3342 0.0078 0.9425
vn -0.6613 0.1237 0.7398
vn -0.8856 0.2738 -0.3753
vn -0.9101 0.1817 -0.3723
vn -0.9050 0.1936 -0.3789
vn -0.9830 0.1816 0.0258
vn -0.6655 0.1147 -0.7375
vn -0.2288 0.2465 -0.9417
vn -0.2580 0.1106 -0.9598
vn -0.2527 0.1495 -0.9559
vn -0.7129 0.3969 0.5782
vn -0.7850 0.4960 0.3711
vn -0.9255 0.3786 0.0096
vn -0.6456 0.1281 -0.7528
vn -0.8806 0.1316 0.4551
vn -0.6656 0.1147 -0.7375
vn -0.2268 0.4813 -0.8467
vn -0.2180 0.0293 -0.9755
vn -0.1779 0.0008 -0.9841
vn -0.3438 0.0189 0.9389
vn -0.2884 0.1965 0.9371
usemtl mat_1.021
s 1
f 1/1/1 2/2/2 3/3/3
f 4/4/4 3/3/3 2/2/2
f 3/3/3 4/4/4 5/5/5
f 6/6/6 5/5/5 4/4/4
f 5/5/5 6/6/6 7/7/7
f 8/8/8 7/7/7 6/6/6
f 7/7/7 8/8/8 9/9/9
f 10/10/10 9/9/9 8/8/8
f 9/9/9 10/10/10 11/11/11
f 12/12/12 11/11/11 10/10/10
f 61/13/13 1/14/1 11/11/11 69/15/14
f 13/16/15 11/11/11 1/14/1
f 11/11/11 13/16/15 14/17/16
f 15/18/17 14/17/16 13/16/15
f 14/17/16 15/18/17 16/19/18
f 41/20/19 16/19/18 15/18/17 50/21/20
f 70/22/21 17/23/22 18/24/23 77/25/24
f 8/8/8 18/24/23 17/23/22
f 18/24/23 8/8/8 6/6/6
f 19/26/25 3/3/3 20/27/26
f 21/28/27 20/27/26 3/3/3
f 20/27/26 21/28/27 22/29/28
f 16/19/18 22/29/28 21/28/27
f 1/14/1 19/30/25 13/16/15
f 23/31/29 13/16/15 19/30/25
f 13/16/15 23/31/29 15/18/17
f 52/32/30 15/18/17 23/31/29 51/33/31
f 3/3/3 5/5/5 21/28/27
f 24/34/32 21/28/27 5/5/5
f 21/28/27 24/34/32 16/19/18
f 14/17/16 16/19/18 24/34/32
f 80/35/33 79/36/34 78/37/35 63/38/36 62/39/37 61/13/13 69/15/14 76/40/38 74/41/39 81/42/40 64/43/41 88/44/42 85/45/43 83/46/44 71/47/45 70/22/21 77/25/24 82/48/46
f 63/49/36 2/50/2 62/39/37
f 79/36/34 4/4/4 78/37/35
f 80/35/33 25/51/47 4/4/4 79/36/34
f 6/6/6 4/4/4 25/51/47
f 80/35/33 82/48/46 25/51/47
f 88/44/42 64/43/41 10/10/10 53/52/48
f 53/52/48 10/10/10 54/53/49
f 51/33/31 23/31/29 26/54/50 48/55/51
f 19/30/25 26/54/50 23/31/29
f 11/11/11 14/17/16 9/9/9
f 7/7/7 9/9/9 14/17/16
f 19/26/25 20/27/26 27/56/52
f 22/29/28 27/56/52 20/27/26
f 5/5/5 7/7/7 24/34/32
f 14/17/16 24/34/32 7/7/7
f 76/40/38 12/12/12 74/41/39
f 81/42/40 74/41/39 12/12/12
f 6/6/6 25/51/47 18/24/23
f 3/3/3 19/26/25 1/1/1
f 19/26/25 27/56/52 26/57/50
f 42/58/53 16/19/18 41/20/19
f 44/59/54 22/29/28 43/60/55
f 47/61/56 26/57/50 27/56/52 49/62/57
f 49/62/57 27/56/52 45/63/58
f 45/63/58 27/56/52 22/29/28 46/64/59
f 49/62/57 45/63/58 46/64/59 44/59/54 43/60/55 42/58/53 41/20/19 50/21/20 52/32/30 51/33/31 48/55/51 47/61/56
f 15/18/17 52/32/30 50/21/20
f 26/54/50 47/65/56 48/55/51
f 22/29/28 44/59/54 46/64/59
f 16/19/18 42/58/53 43/60/55 22/29/28
f 8/8/8 60/66/60 54/53/49 10/10/10
f 60/66/60 8/8/8 83/46/44 85/45/43
f 18/24/23 25/51/47 82/48/46 77/25/24
f 17/23/22 71/47/45 83/46/44 8/8/8
f 17/23/22 70/22/21 71/47/45
f 11/11/11 12/12/12 76/40/38 69/15/14
f 12/12/12 10/10/10 64/43/41 81/42/40
f 2/2/2 63/38/36 78/37/35 4/4/4
f 1/14/1 61/13/13 62/39/37 2/50/2
usemtl mat_2.021
f 86/67/61 68/68/62 87/69/63
f 85/45/43 88/70/42 53/52/48 54/53/49 60/66/60
f 86/67/61 87/69/63 56/71/64 57/72/65 55/73/66
f 36/74/67 38/75/68 35/76/69
f 66/77/70 32/78/71 73/79/72
f 55/73/66 57/80/65 35/76/73
f 39/81/74 35/76/73 57/80/75 58/82/76
f 35/76/73 68/68/62 86/67/61 55/73/66
usemtl mat_3.021
f 31/83/77 29/84/78 30/85/79
f 30/85/79 29/84/78 28/86/80
f 28/86/80 32/87/81 30/85/79
f 31/83/77 30/85/79 32/87/81
f 37/88/82 36/89/83 38/90/84
f 36/89/83 39/91/85 35/92/86
f 39/91/85 31/83/77 32/87/81
f 40/93/87 34/94/88 33/95/89
f 87/69/63 68/96/62 35/92/86 56/71/64
f 75/97/90 84/98/91 59/99/92 39/91/85
f 39/91/85 59/99/92 58/100/93
f 35/92/86 57/72/65 56/71/64
f 39/91/85 32/87/81 73/101/94 75/97/90
f 35/92/95 68/96/96 72/102/97 34/94/88
f 33/95/89 34/94/88 72/102/97 67/103/98
f 32/87/81 28/86/80 65/104/99 66/105/100
