# Blender v2.92.0 OBJ File: 'untitled.blend'
# www.blender.org
mtllib RightForeArm.mtl
o RightForeArm_AnyConv.com__YL2P5KQGE76L5YJ867ROUMOYO_Looking_Around(1).008
v -0.106043 -0.022711 0.040736
v -0.106059 0.019756 0.040736
v -0.100957 0.019764 0.041048
v -0.100940 -0.022701 0.041048
v 0.037664 0.018209 0.032860
v 0.037679 -0.019727 0.032860
v 0.144695 -0.013727 0.024679
v 0.037068 -0.030591 -0.002274
v -0.101680 0.040941 -0.001152
v 0.037043 0.029265 -0.003410
v 0.144684 0.012580 0.024679
v -0.092809 0.021720 -0.049620
v 0.036350 0.016626 -0.043269
v 0.143638 0.011714 -0.035884
v -0.092789 -0.029644 -0.048730
v 0.036366 -0.019963 -0.042575
v 0.143648 -0.014594 -0.035437
v -0.101645 -0.047499 0.000382
v 0.144173 0.021519 -0.005116
v 0.144190 -0.022266 -0.004373
v -0.147287 0.034874 -0.000417
v -0.149311 0.016597 -0.043350
v -0.149319 0.015812 -0.043336
v -0.147398 0.033863 -0.002773
v -0.146144 -0.021691 0.040664
v -0.149711 -0.023684 -0.042587
v -0.145758 0.014361 0.040665
v -0.145712 0.018634 0.040665
v -0.147180 0.033479 0.002441
v -0.148148 -0.040645 -0.001627
v -0.148099 -0.041147 -0.000346
v -0.148027 -0.040269 0.001138
v 0.152400 0.012812 0.026111
v 0.150999 0.015670 0.014495
v 0.148656 0.021566 -0.005192
v 0.147734 0.019720 -0.011951
v 0.147416 -0.022443 -0.004428
v 0.148376 -0.020611 0.002632
v 0.144362 0.010372 -0.036047
v 0.144400 0.011731 -0.036079
v 0.151587 -0.013986 0.026121
v 0.151886 -0.003685 0.026015
vt 0.410742 0.324969
vt 0.356359 0.323845
vt 0.356359 0.293478
vt 0.256096 0.326072
vt 0.301496 0.294335
vt 0.301496 0.324267
vt 0.350841 0.323968
vt 0.356359 0.248048
vt 0.301496 0.248048
vt 0.356359 0.117117
vt 0.301496 0.117117
vt 0.301496 0.001762
vt 0.254367 0.117117
vt 0.414734 0.267931
vt 0.414734 0.323719
vt 0.414734 0.117117
vt 0.356359 0.001762
vt 0.476462 0.326366
vt 0.417746 0.324385
vt 0.476462 0.267931
vt 0.476462 0.117117
vt 0.476462 0.001762
vt 0.528934 0.326784
vt 0.477264 0.326375
vt 0.528934 0.267931
vt 0.528934 0.117117
vt 0.528934 0.001762
vt 0.576244 0.267931
vt 0.576244 0.117117
vt 0.254367 0.267931
vt 0.254367 0.325393
vt 0.575014 0.325739
vt 0.576244 0.325393
vt 0.414734 0.001762
vt 0.254367 0.001762
vt 0.576244 0.001762
vt 0.354339 0.013928
vt 0.411103 0.018293
vt 0.443084 0.020901
vt 0.490901 0.019770
vt 0.515743 0.019111
vt 0.581050 0.013012
vt 0.599080 0.011189
vt 0.225693 0.004169
vt 0.271996 0.005076
vt 0.274622 0.005831
vt 0.337833 0.012177
vt 0.599080 0.004165
vt 0.516751 0.004165
vt 0.440102 0.004169
vt 0.274887 0.004165
vt 0.354339 0.004169
vt 0.665837 0.004165
vn -0.7675 0.5848 0.2626
vn -0.5561 0.3416 0.7577
vn 0.0228 0.6229 0.7820
vn -0.6956 -0.5982 0.3979
vn -0.1373 -0.5012 0.8544
vn -0.6656 -0.4378 0.6043
vn -0.7133 -0.0818 0.6961
vn 0.0036 0.5483 0.8363
vn 0.0173 -0.3894 0.9209
vn 0.0746 0.3846 0.9201
vn 0.0916 -0.6616 0.7443
vn 0.0958 -0.5941 0.7987
vn 0.0900 -0.9955 -0.0311
vn -0.0103 0.9986 0.0522
vn -0.6604 0.7504 0.0275
vn 0.0692 0.9958 0.0607
vn 0.0895 0.7690 0.6330
vn -0.7052 0.4040 -0.5827
vn -0.7474 0.6247 -0.2261
vn -0.0426 0.5486 -0.8350
vn 0.0778 0.5727 -0.8160
vn 0.0790 0.7591 -0.6462
vn -0.7327 -0.4429 -0.5166
vn -0.6989 0.0457 -0.7137
vn -0.0407 -0.6618 -0.7486
vn 0.0778 -0.4908 -0.8678
vn 0.0851 -0.6178 -0.7817
vn 0.0005 -0.9775 0.2111
vn -0.7347 -0.6770 0.0435
vn -0.7371 -0.6387 -0.2209
vn 0.0720 0.9974 -0.0099
vn 0.0779 -0.9968 0.0204
vn 0.6748 0.7374 0.0293
vn 0.6823 0.7039 0.1977
vn 0.4830 0.2904 0.8261
vn 0.5566 -0.2172 0.8019
vn 0.6471 -0.2509 0.7200
vn 0.6417 -0.7662 -0.0344
vn 0.6406 -0.7544 -0.1433
vn 0.9899 -0.0969 0.1034
vn 0.4538 0.0213 -0.8909
vn 0.4661 0.3262 -0.8224
vn 0.6713 0.7019 -0.2382
vn -0.0690 -0.9923 0.1033
vn -0.1942 -0.3786 0.9050
vn -0.1064 0.7807 0.6158
vn -0.2384 0.3679 -0.8988
vn -0.0406 0.9946 -0.0952
usemtl mat_2.008
s 1
f 29/1/1 28/2/2 2/3/3
f 32/4/4 1/5/5 25/6/6
f 27/7/7 25/6/6 1/5/5
f 2/3/3 1/5/5 3/8/8
f 4/9/9 3/8/8 1/5/5
f 3/8/8 4/9/9 5/10/10
f 6/11/11 5/10/10 4/9/9
f 5/10/10 6/11/11 7/12/12
f 8/13/13 7/12/12 6/11/11
f 29/1/1 2/3/3 9/14/14 21/15/15
f 3/8/8 9/14/14 2/3/3
f 9/14/14 3/8/8 10/16/16
f 5/10/10 10/16/16 3/8/8
f 10/16/16 5/10/10 11/17/17
f 7/12/12 11/17/17 5/10/10
f 22/18/18 24/19/19 12/20/20
f 12/20/20 9/14/14 13/21/21
f 10/16/16 13/21/21 9/14/14
f 13/21/21 10/16/16 14/22/22
f 26/23/23 23/24/24 15/25/25
f 15/25/25 12/20/20 16/26/26
f 13/21/21 16/26/26 12/20/20
f 16/26/26 13/21/21 17/27/27
f 18/28/28 15/25/25 8/29/13
f 16/26/26 8/29/13 15/25/25
f 8/29/13 16/26/26 17/27/27
f 8/13/13 6/11/11 18/30/28
f 4/9/9 18/30/28 6/11/11
f 4/9/9 1/5/5 18/30/28
f 31/31/29 18/30/28 1/5/5 32/4/4
f 30/32/30 31/33/29 32/4/4 25/6/6 27/7/7 28/2/2 29/1/1 21/15/15 24/19/19 22/18/18 23/24/24 26/23/23
f 11/17/17 19/34/31 10/16/16
f 14/22/22 10/16/16 19/34/31
f 7/12/12 8/13/13 20/35/32
f 8/29/13 17/27/27 20/36/32
f 17/27/27 13/21/21 14/22/22
f 18/28/28 31/33/29 30/32/30 15/25/25
f 1/5/5 2/3/3 28/2/2 27/7/7
f 15/25/25 30/32/30 26/23/23
f 12/20/20 15/25/25 23/24/24 22/18/18
f 9/14/14 12/20/20 24/19/19 21/15/15
usemtl mat_3.008
f 35/37/33 34/38/34 33/39/35 42/40/36 41/41/37 38/42/38 37/43/39 17/44/40 39/45/41 40/46/42 36/47/43
f 38/42/38 20/48/44 37/43/39
f 42/40/36 7/49/45 41/41/37
f 34/38/34 11/50/46 33/39/35
f 39/45/41 14/51/47 40/46/42
f 20/48/44 38/42/38 41/41/37 7/49/45
f 19/52/48 36/47/43 40/46/42 14/51/47
f 19/52/48 35/37/33 36/47/43
f 11/50/46 34/38/34 35/37/33 19/52/48
f 7/49/45 42/40/36 33/39/35 11/50/46
f 20/48/44 17/53/40 37/43/39
f 14/51/47 39/45/41 17/44/40
