# Blender v2.92.0 OBJ File: ''
# www.blender.org
mtllib RightUpLeg.mtl
o RightUpLeg_AnyConv.com__YL2P5KQGE76L5YJ867ROUMOYO_Looking_Around(1).022
v -0.009503 0.028631 0.081398
v -0.009848 0.096796 0.110737
v -0.068835 0.028631 0.081398
v 0.063839 0.045237 0.069557
v 0.064439 -0.011625 0.084697
v 0.123451 0.117416 -0.026389
v 0.126136 -0.073931 -0.022824
v 0.075182 -0.076984 -0.149632
v 0.056941 -0.252439 -0.118413
v -0.044620 -0.084025 -0.149632
v 0.032714 -0.416934 -0.069110
v 0.067585 -0.395823 0.003478
v -0.033108 -0.258736 -0.118413
v -0.091223 -0.086761 -0.022824
v -0.079940 0.018109 -0.059428
v -0.059417 -0.019220 0.084697
v -0.056314 -0.084512 0.086855
v 0.065764 -0.077507 0.086855
v 0.050379 -0.252898 0.076907
v 0.101449 -0.249327 -0.016476
v -0.089664 -0.021085 0.004330
v -0.071051 -0.261389 -0.016476
v 0.033705 -0.372020 0.070135
v -0.038830 -0.259136 0.076907
v -0.041506 -0.422124 -0.069108
v 0.064119 0.100990 0.083350
v 0.053782 0.196602 0.079652
v 0.073472 0.085281 -0.152787
v -0.038186 0.031207 -0.149826
v -0.073772 -0.403773 0.003478
v -0.050819 0.055820 -0.105534
v -0.046263 -0.377612 0.070135
v -0.017730 0.200309 0.106190
v -0.047618 0.048647 0.126024
v -0.118394 -0.013111 0.124696
v -0.018752 0.200309 0.104879
v -0.008827 0.131365 0.121203
v 0.018286 0.048647 0.113151
v 0.074597 0.048647 0.093599
v 0.072839 0.000731 0.092505
v 0.108821 0.048647 0.022275
v 0.065877 0.131366 0.093599
v 0.097436 0.062983 -0.123478
v 0.133490 0.067697 -0.034954
v 0.125936 0.131366 -0.026332
v 0.073057 0.064686 -0.157972
v -0.008390 0.048165 -0.182087
v 0.055540 0.196602 0.080745
v 0.041913 -0.003465 -0.183377
v 0.135012 0.007566 -0.075229
v -0.016708 0.200309 0.107501
v -0.017161 -0.420817 0.086523
v -0.046522 -0.447703 -0.046207
v -0.042340 -0.420393 0.085731
v 0.072225 -0.436932 0.019006
v 0.062908 -0.432607 0.038782
v 0.036867 -0.421728 0.088221
v -0.059835 -0.428493 0.044772
v -0.071726 -0.434421 0.014892
v 0.038129 -0.451764 -0.056229
v -0.038870 -0.451505 -0.063647
v 0.035118 -0.453000 -0.062521
v -0.022655 -0.451828 -0.063379
v -0.012085 0.212075 0.096105
v 0.051944 0.203771 0.075647
v -0.019733 0.213155 0.098799
v 0.059288 0.199546 0.063912
v 0.112975 0.163206 -0.037532
v -0.013057 0.211871 0.095469
v 0.105718 0.153296 -0.066350
v 0.083460 0.136997 -0.114290
v 0.068988 0.125231 -0.148811
v -0.018895 0.213588 0.100086
v -0.010981 0.212463 0.097277
v 0.077450 0.123278 -0.153971
v 0.053500 0.204104 0.076685
v -0.006207 0.129164 -0.141484
v 0.059121 0.121550 -0.159894
v 0.119530 0.163810 -0.035455
v 0.078046 0.123825 -0.152368
v 0.062067 0.199646 0.064344
v 0.076745 0.122948 -0.154954
v -0.020812 0.212852 0.097874
v 0.079526 0.125354 -0.147905
v -0.031342 0.200309 0.106420
v -0.052688 0.158965 0.119552
v -0.031847 0.200309 0.108927
v -0.054865 0.053837 -0.105665
v -0.050607 0.159621 0.110696
v -0.031559 0.200309 0.107497
v -0.066444 0.131366 0.125867
v -0.093737 0.024928 0.022376
v -0.022349 0.109662 -0.141724
v -0.081790 0.019166 -0.049860
v -0.080559 0.018193 -0.058156
v -0.080408 0.018016 -0.059301
v -0.080041 0.018434 -0.060184
v -0.026156 0.210213 0.102917
v -0.020360 0.114157 -0.141508
v -0.105816 0.048647 0.135580
v -0.084710 0.091998 0.128146
v -0.026532 0.208632 0.101231
v -0.017728 0.101986 -0.181895
v -0.021612 0.092687 -0.183497
v -0.080102 0.096796 0.116046
v -0.118394 0.018990 0.131427
v -0.127858 -0.004853 0.124873
v -0.025552 0.102308 -0.142338
v -0.034404 0.089262 -0.127692
v -0.089216 0.071329 0.104108
v -0.093212 0.026985 0.024386
v -0.094561 0.021078 0.017819
v -0.015621 0.106981 -0.181139
v -0.023937 0.213041 0.098251
v -0.011849 0.115905 -0.179826
v -0.013438 0.128671 -0.143280
v -0.024037 0.213847 0.100559
v -0.023974 0.213335 0.099094
v -0.011865 0.116031 -0.179465
vt 0.067953 0.863378
vt 0.059688 0.920841
vt 0.032777 0.853263
vt 0.135807 0.891004
vt 0.134409 0.776928
vt 0.231233 0.913596
vt 0.231233 0.775115
vt 0.331973 0.795780
vt 0.331973 0.630238
vt 0.425006 0.783901
vt 0.231233 0.490733
vt 0.331973 0.511212
vt 0.425006 0.630160
vt 0.489180 0.754823
vt 0.478505 0.855979
vt 0.049398 0.754249
vt 0.059903 0.684576
vt 0.141132 0.703080
vt 0.146353 0.590802
vt 0.231233 0.629836
vt 0.002791 0.740885
vt 0.002791 0.665227
vt 0.002791 0.556570
vt 0.148907 0.487011
vt 0.067552 0.569861
vt 0.425006 0.510387
vt 0.489180 0.598838
vt 0.082108 0.552979
vt 0.065887 0.581612
vt 0.043681 0.632258
vt 0.043245 0.632980
vt 0.043161 0.633961
vt 0.042686 0.640487
vt 0.526947 0.838185
vt 0.004734 0.836127
vt 0.005084 0.840727
vt 0.032919 0.769952
vt 0.036367 0.790332
vt 0.059565 0.839671
vt 0.076077 0.871610
vt 0.747624 0.055967
vt 0.783611 0.072110
vt 0.789746 0.076202
vt 0.793207 0.078053
vt 0.286095 0.808446
vt 0.092921 0.533740
vt 0.405523 0.942689
vt 0.408707 0.936658
vt 0.127929 0.928779
vt 0.118786 0.969498
vt 0.293632 0.939453
vt 0.331973 0.903692
vt 0.325234 0.931894
vt 0.425006 0.875082
vt 0.440330 0.466677
vt 0.489180 0.456688
vt 0.425006 0.480098
vt 0.444052 0.902740
vt 0.069845 0.471777
vt 0.513496 0.806051
vt 0.002791 0.451598
vt 0.404843 0.478784
vt 0.331973 0.475471
vt 0.231233 0.448324
vt 0.207933 0.444784
vt 0.149412 0.447623
vt 0.095498 0.442231
vt 0.489180 0.432022
vt 0.070755 0.439129
vt 0.030953 0.430382
vt 0.323383 0.473166
vt 0.002791 0.426113
vt 0.402684 0.945278
vt 0.386939 0.952166
vt 0.231233 0.950696
vt 0.132267 0.972873
vt 0.421182 0.927796
vt 0.484588 0.854358
vt 0.002791 0.827796
vt 0.286120 0.860504
vt 0.293177 0.868102
vt 0.897731 0.342666
vt 0.169777 0.879365
vt 0.157417 0.878595
vt 0.158893 0.872134
vt 0.087938 0.871785
vt 0.104440 0.791151
vt 0.036394 0.698112
vt 0.061695 0.736199
vt 0.094130 0.882843
vt 0.086766 0.883185
vt 0.043840 0.632991
vt 0.070013 0.580901
vt 0.793443 0.080279
vt 0.794054 0.085546
vt 0.613561 0.028808
vt 0.631723 0.018086
vt 0.605942 0.022322
vt 0.378907 0.777650
vt 0.856822 0.310044
vt 0.656852 0.024240
vt 0.693397 0.037959
vt 0.662919 0.070824
vt 0.728714 0.089633
vt 0.739116 0.140481
vt 0.665310 0.126413
vt 0.679516 0.166665
vt 0.702848 0.220099
vt 0.794869 0.125787
vt 0.789390 0.126804
vt 0.784719 0.081739
vt 0.895975 0.350072
vt 0.814880 0.238697
vt 0.843823 0.296678
vt 0.779067 0.229133
vt 0.871847 0.389633
vt 0.816044 0.403172
vt 0.823419 0.340590
vt 0.845321 0.299696
vt 0.741126 0.259939
vt 0.098690 0.525734
vt 0.105081 0.526966
vt 0.791299 0.317326
vt 0.845951 0.301004
vt 0.803250 0.217950
vt 0.083136 0.883292
vt 0.895071 0.354126
vt 0.894680 0.362747
vt 0.724696 0.046765
vt 0.000000 0.000000
vt 0.000000 0.000000
vt 0.000000 0.000000
vt 0.000000 0.000000
vt 0.243552 0.458683
vt 0.240117 0.462800
vt 0.251706 0.446882
vt 0.449505 0.581417
vt 0.443984 0.499819
vt 0.496988 0.492443
vt 0.435638 0.440526
vt 0.310205 0.379796
vt 0.332931 0.435753
vt 0.287263 0.405754
vt 0.271681 0.524589
vt 0.280925 0.521403
vt 0.277896 0.537045
vt 0.241939 0.467541
vt 0.257453 0.461937
vt 0.244872 0.474837
vt 0.352865 0.505774
vt 0.360475 0.641953
vt 0.427622 0.655760
vt 0.482872 0.714823
vt 0.402292 0.759642
vt 0.322902 0.643997
vt 0.000000 0.000000
vt 0.000000 0.000000
vt 0.316023 0.792953
vt 0.323361 0.776274
vt 0.377355 0.809370
vt 0.296925 0.872562
vt 0.402658 0.369784
vt 0.380085 0.307882
vt 0.407384 0.283971
vt 0.442213 0.272570
vn 0.0675 -0.0792 0.9946
vn 0.2376 -0.2399 0.9413
vn -0.3592 -0.1893 0.9139
vn 0.5188 -0.0669 0.8523
vn 0.4957 0.1117 0.8613
vn 0.9806 0.0835 0.1772
vn 0.9962 -0.0643 0.0589
vn 0.6673 -0.0832 -0.7401
vn 0.6179 -0.2436 -0.7476
vn -0.4793 -0.0799 -0.8740
vn 0.9954 -0.0796 -0.0534
vn 0.4931 -0.3964 -0.7744
vn -0.5578 -0.2146 -0.8017
vn -0.9931 -0.0691 -0.0945
vn -0.9554 0.0547 -0.2900
vn -0.4770 -0.0334 0.8783
vn -0.6582 -0.0747 0.7491
vn 0.5089 -0.0324 0.8602
vn 0.5055 -0.1081 0.8560
vn 0.9758 -0.1648 0.1436
vn -0.9863 -0.0948 0.1350
vn -0.9983 -0.0485 0.0330
vn 0.4453 0.1487 0.8829
vn -0.4557 -0.0592 0.8881
vn -0.5900 -0.2940 -0.7519
vn -0.9297 0.2838 -0.2346
vn -0.5546 -0.4758 -0.6827
vn -0.6168 -0.5269 -0.5848
vn -0.7839 -0.6072 -0.1297
vn -0.8362 -0.5483 -0.0098
vn -0.9525 0.1647 -0.2563
vn -0.9969 0.0785 0.0028
vn -0.9779 0.1477 0.1481
vn -0.9995 -0.0090 0.0296
vn -0.7952 -0.0331 0.6055
vn -0.6712 0.1293 0.7299
vn -0.6629 0.3669 0.6526
vn 0.0384 0.2273 0.9731
vn -0.9318 0.3443 -0.1149
vn -0.8522 0.3942 -0.3442
vn -0.8875 0.4193 -0.1909
vn -0.5781 0.7609 -0.2945
vn -0.3745 0.3897 -0.8414
vn -0.5293 0.3676 -0.7647
vn -0.6832 0.3299 -0.6515
vn -0.6790 0.3630 -0.6381
vn 0.6577 -0.0428 0.7521
vn 0.7497 0.1707 0.6394
vn 0.6544 0.6170 -0.4371
vn 0.4506 0.0230 -0.8924
vn 0.5139 0.4431 -0.7345
vn -0.6606 0.1393 -0.7377
vn -0.6813 -0.7246 -0.1035
vn -0.9951 -0.0514 -0.0845
vn -0.3762 -0.6811 -0.6281
vn -0.9019 0.2131 -0.3757
vn -0.7408 0.1022 0.6639
vn -0.0969 -0.8825 -0.4602
vn 0.5889 -0.5865 -0.5561
vn 0.7592 -0.6181 0.2039
vn 0.7236 -0.4997 0.4762
vn 0.3661 -0.3793 0.8498
vn -0.0178 -0.5296 0.8480
vn -0.8004 -0.5867 0.1229
vn -0.3912 -0.3614 0.8464
vn -0.7541 -0.5564 0.3490
vn 0.6091 -0.7831 -0.1255
vn -0.0649 0.5068 -0.8596
vn 0.7158 0.6430 -0.2725
vn 0.5831 0.8086 0.0780
vn -0.2603 0.6309 -0.7309
vn -0.7914 -0.6001 -0.1161
vn -0.5837 0.6080 0.5381
vn 0.4463 0.8491 0.2825
vn 0.5425 0.3650 0.7566
vn 0.2192 0.2898 0.9316
vn 0.1709 -0.1130 0.9788
vn -0.4025 -0.5722 0.7145
vn 0.2559 0.8711 0.4192
vn 0.2043 0.5087 0.8363
vn 0.2293 -0.9647 -0.1299
vn 0.3781 -0.7340 -0.5642
vn -0.0082 0.9414 -0.3372
vn 0.0624 0.9190 -0.3893
vn 0.1258 0.3533 -0.9270
vn 0.1434 0.1236 -0.9819
vn -0.0000 0.2052 -0.9787
vn 0.9812 0.1805 -0.0677
vn -0.0858 -0.0602 -0.9945
vn -0.0530 -0.0786 -0.9955
vn -0.1347 0.0310 -0.9904
vn -0.2147 -0.1632 -0.9630
vn -0.6613 -0.1237 -0.7398
vn -0.3342 -0.0077 -0.9425
vn -0.6656 -0.0143 -0.7462
vn -0.8983 -0.0433 -0.4373
vn 0.8986 0.1235 -0.4211
vn -0.6262 -0.3513 -0.6960
vn -0.1831 -0.3482 -0.9194
vn -0.2364 -0.2802 -0.9304
vn -0.6599 -0.4245 0.6199
vn -0.7400 -0.5552 0.3797
vn -0.9830 -0.1816 -0.0258
vn -0.2527 -0.1495 0.9559
vn -0.2288 -0.2465 0.9417
vn -0.2580 -0.1107 0.9598
vn -0.9836 -0.1222 0.1330
vn -0.9102 -0.1817 0.3723
vn -0.0217 -0.2825 -0.9590
vn -0.1055 -0.4675 -0.8777
vn -0.9050 -0.1937 0.3789
vn -0.6449 -0.3054 0.7006
vn -0.8848 -0.4103 0.2208
vn -0.2099 -0.5348 -0.8185
vn 0.0814 0.5017 0.8612
vn -0.3308 -0.0582 0.9419
vn -0.2690 0.0758 0.9602
vn -0.1142 -0.5013 -0.8577
vn -0.2147 -0.1631 -0.9630
vn -0.0458 -0.0529 -0.9976
vn -0.0227 -0.2324 -0.9724
vn -0.8979 0.4002 -0.1833
vn -0.5750 0.7612 -0.2999
vn -0.4438 0.8398 -0.3126
vn -0.8962 0.4054 -0.1805
vn -0.5384 0.6736 0.5064
vn -0.3815 0.8948 0.2319
vn -0.4563 0.8374 -0.3009
vn -0.8941 0.4107 -0.1785
vn 0.0843 0.1401 0.9865
vn -0.6093 0.4492 0.6534
vn 0.8983 0.0433 0.4373
vn 0.6656 0.0143 0.7462
vn 0.6653 -0.0414 0.7454
vn 0.3342 0.0078 0.9425
vn -0.0172 0.1187 0.9928
vn 0.2169 0.1495 0.9647
vn 0.0339 0.3163 0.9481
vn 0.5987 0.5306 0.6000
vn 0.6368 0.3432 0.6905
vn 0.7538 0.6278 0.1941
vn 0.1643 0.9027 0.3976
vn 0.2475 0.4011 0.8820
vn 0.2425 0.9386 0.2453
vn 0.6613 0.1237 0.7398
vn 0.9830 0.1816 0.0258
vn 0.9101 0.1817 -0.3723
vn 0.8856 0.2738 -0.3753
vn 0.9050 0.1936 -0.3789
vn 0.7545 0.6224 0.2083
vn 0.0155 0.9447 -0.3277
vn 0.0177 0.9470 -0.3208
vn 0.0167 0.9413 -0.3373
vn 0.0153 0.9438 -0.3302
vn 0.0173 0.9442 -0.3290
vn 0.6687 0.0968 -0.7372
vn 0.2580 0.1107 -0.9598
vn 0.3411 0.0202 -0.9398
vn 0.1900 0.1015 -0.9765
vn 0.2378 0.1329 -0.9622
vn 0.1347 -0.0311 0.9904
vn -0.0154 -0.2158 0.9763
vn -0.0553 -0.1694 0.9840
vn -0.0000 -0.2052 0.9787
usemtl mat_1.022
s 1
f 1/1/1 2/2/2 3/3/3
f 2/2/2 1/1/1 4/4/4
f 5/5/5 4/4/4 1/1/1
f 4/4/4 5/5/5 6/6/6
f 7/7/7 6/6/6 5/5/5
f 6/6/6 7/7/7 8/8/8
f 9/9/9 8/8/8 7/7/7
f 8/8/8 9/9/9 10/10/10
f 12/11/11 11/12/12 9/9/9
f 13/13/13 9/9/9 11/12/12
f 9/9/9 13/13/13 10/10/10
f 14/14/14 10/10/10 13/13/13
f 10/10/10 14/14/14 15/15/15
f 16/16/16 17/17/17 18/18/18
f 19/19/19 18/18/18 17/17/17
f 18/18/18 19/19/19 20/20/20
f 12/11/11 20/20/20 19/19/19
f 20/20/20 12/11/11 9/9/9
f 16/16/16 21/21/21 17/17/17
f 14/22/14 17/17/17 21/21/21
f 17/17/17 14/22/14 22/23/22
f 19/19/19 23/24/23 12/11/11
f 23/24/23 19/19/19 24/25/24
f 17/17/17 24/25/24 19/19/19
f 24/25/24 17/17/17 22/23/22
f 11/12/12 25/26/25 13/13/13
f 22/27/22 13/13/13 25/26/25
f 13/13/13 22/27/22 14/14/14
f 109/28/26 88/29/27 97/30/28 96/31/29 95/32/30 94/33/31 112/34/32 92/35/33 111/36/34 110/37/35 105/38/36 89/39/37 90/40/38 86/41/39 85/42/40 102/43/41 114/44/42 116/45/43 99/46/44 93/47/45 108/48/46
f 26/49/47 6/6/6 27/50/48
f 6/6/6 26/49/47 4/4/4
f 2/2/2 4/4/4 26/49/47
f 71/51/49 28/52/50 72/53/51
f 8/8/8 10/10/10 28/52/50
f 29/54/52 28/52/50 10/10/10
f 5/5/5 18/18/18 7/7/7
f 20/20/20 7/7/7 18/18/18
f 7/7/7 20/20/20 9/9/9
f 18/18/18 5/5/5 16/16/16
f 1/1/1 16/16/16 5/5/5
f 16/16/16 1/1/1 3/3/3
f 53/55/53 30/56/54 25/26/25 61/57/55
f 22/27/22 25/26/25 30/56/54
f 10/10/10 15/15/15 29/54/52
f 31/58/56 29/54/52 15/15/15
f 23/24/23 24/25/24 32/59/57
f 22/23/22 32/59/57 24/25/24
f 2/2/2 26/49/47 27/50/48
f 8/8/8 28/52/50 6/6/6
f 15/15/15 14/14/14 21/60/21
f 32/59/57 22/23/22 30/61/54
f 63/62/58 11/12/12 62/63/59
f 55/64/60 12/11/11 23/24/23 56/65/61
f 57/66/62 23/24/23 52/67/63
f 59/68/64 30/56/54 53/55/53
f 54/69/65 32/59/57 58/70/66
f 25/26/25 11/12/12 63/62/58 61/57/55
f 11/12/12 12/11/11 60/71/67 62/63/59
f 30/61/54 59/72/64 58/70/66 32/59/57
f 23/24/23 57/66/62 56/65/61
f 59/72/64 53/55/53 61/57/55 63/62/58 62/63/59 60/71/67 55/64/60 56/65/61 57/66/62 52/67/63 54/69/65 58/70/66
f 12/11/11 55/64/60 60/71/67
f 32/59/57 54/69/65 52/67/63 23/24/23
f 99/73/44 77/74/68 72/53/51 28/52/50 93/47/45
f 28/52/50 71/51/49 68/75/69 6/6/6
f 27/50/48 6/6/6 68/75/69 67/76/70
f 29/54/52 31/58/56 109/77/26 108/48/46
f 15/15/15 21/60/21 112/34/32 94/78/31
f 28/52/50 29/54/52 108/48/46 93/47/45
f 3/3/3 111/36/34 92/35/33 16/16/16
f 21/21/21 16/16/16 92/35/33 112/79/32
usemtl mat_2.022
f 115/80/71 113/81/72 119/82/73
f 67/83/70 65/84/74 27/85/75
f 27/85/75 33/86/76 2/87/77
f 105/38/36 2/87/77 33/86/76 89/39/37
f 111/88/34 3/89/78 110/37/35
f 64/90/79 66/91/80 33/86/76
f 95/32/30 15/92/81 94/33/31
f 88/29/27 31/93/82 15/92/81 97/30/28
f 116/45/43 114/44/42 83/94/83 69/95/84 64/90/79 65/84/74 67/83/70 68/75/69 71/51/49 72/53/51 77/74/68
f 107/96/85 106/97/86 35/98/87
f 115/99/71 119/82/73 78/100/88
f 100/101/89 101/102/90 34/103/91
f 37/104/92 42/105/93 38/106/94
f 39/107/95 38/106/94 42/105/93
f 41/108/96 39/107/95 42/105/93
f 76/109/97 48/110/98 36/111/99 69/95/100
f 37/104/92 36/111/99 48/110/98
f 48/110/98 42/105/93 37/104/92
f 119/82/73 113/112/72 78/100/88
f 70/113/101 84/114/102 45/115/103
f 45/115/103 41/108/96 42/105/93
f 47/116/104 49/117/105 46/118/106
f 45/115/103 84/114/102 80/119/107 44/120/108
f 85/42/109 102/43/110 36/111/99
f 99/46/44 116/121/43 77/122/68
f 43/123/111 44/120/108 80/119/107 75/124/112
f 45/115/103 79/125/113 70/113/101
f 36/111/99 83/94/114 69/95/100
f 90/40/38 33/86/76 66/91/80 118/126/115
f 33/86/76 27/85/75 65/84/74 64/90/79
f 2/87/77 105/38/36 110/37/35 3/89/78
f 47/116/104 46/118/106 103/127/116 104/128/117
f 83/94/114 36/111/99 102/43/110 114/44/118
f 15/92/81 96/31/29 97/30/28
f 15/92/81 95/32/30 96/31/29
f 37/104/119 34/103/91 101/102/90 91/129/120
f 33/86/76 90/40/38 89/39/37
f 31/93/82 88/29/27 109/28/26
f 36/111/99 37/104/92 86/41/121 85/42/109
f 90/40/122 118/126/123 114/130/124 102/131/125 85/132/125 86/133/125
usemtl mat_3.022
f 98/134/126 117/135/127 118/126/128 90/40/129 86/133/130 87/136/131
f 41/137/132 39/138/133 40/139/134
f 38/140/135 40/139/134 39/138/133
f 91/141/136 37/142/137 86/143/138
f 76/144/139 48/145/140 81/146/141
f 73/147/142 51/148/143 74/149/144
f 51/148/143 37/142/137 48/145/140
f 48/145/140 42/150/145 45/151/146
f 44/152/147 50/153/148 43/154/149
f 45/151/146 79/155/150 81/146/141 48/145/140
f 87/136/131 51/148/143 98/134/126
f 51/148/143 48/145/140 76/144/97 74/149/144
f 73/147/142 74/149/144 76/144/97 69/95/100 64/90/151 66/91/152 118/126/128 117/135/127
f 66/91/153 64/90/154 69/156/155 83/157/155 114/130/124 118/126/123
f 78/158/88 113/81/72 115/80/71
f 82/159/156 46/160/157 103/161/158 113/81/159 78/158/160
f 34/162/161 100/163/162 106/164/163 35/165/164
f 73/147/142 117/135/127 98/134/126 51/148/143
f 51/148/143 87/136/131 86/143/130 37/142/137
